REM DIRINDEX 1\2,1\3,1\4,1\5,1\6
REM DIRNAME folder01,folder02,folder03,folder04,folder05,folder06
TITLE ""
FILE "Disc1Track56.mp3" MP3
  TRACK 01 AUDIO
    TITLE "2:cjc030_01349"
    INDEX 01 00:00:00
  TRACK 02 AUDIO
    TITLE "0:"
    INDEX 01 00:04:21
  TRACK 03 AUDIO
    TITLE "3:cjc030_01350"
    INDEX 01 00:04:56
  TRACK 04 AUDIO
    TITLE "0:"
    INDEX 01 00:07:05
  TRACK 05 AUDIO
    TITLE "4:cjc030_01351"
    INDEX 01 00:07:15
  TRACK 06 AUDIO
    TITLE "0:"
    INDEX 01 00:10:74
  TRACK 07 AUDIO
    TITLE "5:cjc030_01352"
    INDEX 01 00:11:09
  TRACK 08 AUDIO
    TITLE "0:"
    INDEX 01 00:13:35
  TRACK 09 AUDIO
    TITLE "3:cjc030_01353"
    INDEX 01 00:14:06
  TRACK 10 AUDIO
    TITLE "0:"
    INDEX 01 00:15:46
  TRACK 11 AUDIO
    TITLE "4:cjc030_01354"
    INDEX 01 00:15:56
  TRACK 12 AUDIO
    TITLE "0:"
    INDEX 01 00:18:17
  TRACK 13 AUDIO
    TITLE "5:cjc030_01355"
    INDEX 01 00:18:27
  TRACK 14 AUDIO
    TITLE "0:"
    INDEX 01 00:19:67
  TRACK 15 AUDIO
    TITLE "6:cjc030_01356"
    INDEX 01 00:20:06
  TRACK 16 AUDIO
    TITLE "0:"
    INDEX 01 00:24:02
  TRACK 17 AUDIO
    TITLE "3:cjc030_01357"
    INDEX 01 00:24:51
  TRACK 18 AUDIO
    TITLE "0:"
    INDEX 01 00:25:68
  TRACK 19 AUDIO
    TITLE "4:cjc030_01358"
    INDEX 01 00:26:05
  TRACK 20 AUDIO
    TITLE "0:"
    INDEX 01 00:28:43
  TRACK 21 AUDIO
    TITLE "5:cjc030_01359"
    INDEX 01 00:28:51
  TRACK 22 AUDIO
    TITLE "0:"
    INDEX 01 00:29:72
  TRACK 23 AUDIO
    TITLE "6:cjc030_01360"
    INDEX 01 00:30:06
  TRACK 24 AUDIO
    TITLE "0:"
    INDEX 01 00:32:15
  TRACK 25 AUDIO
    TITLE "3:cjc030_01361"
    INDEX 01 00:32:62
  TRACK 26 AUDIO
    TITLE "0:"
    INDEX 01 00:34:04
  TRACK 27 AUDIO
    TITLE "4:cjc030_01362"
    INDEX 01 00:34:14
  TRACK 28 AUDIO
    TITLE "0:"
    INDEX 01 00:37:01
  TRACK 29 AUDIO
    TITLE "5:cjc030_01363"
    INDEX 01 00:37:10
  TRACK 30 AUDIO
    TITLE "0:"
    INDEX 01 00:38:26
  TRACK 31 AUDIO
    TITLE "6:cjc030_01364"
    INDEX 01 00:38:39
  TRACK 32 AUDIO
    TITLE "0:"
    INDEX 01 00:43:33
  TRACK 33 AUDIO
    TITLE "3:cjc030_01365"
    INDEX 01 00:44:07
  TRACK 34 AUDIO
    TITLE "0:"
    INDEX 01 00:45:16
  TRACK 35 AUDIO
    TITLE "4:cjc030_01366"
    INDEX 01 00:45:26
  TRACK 36 AUDIO
    TITLE "0:"
    INDEX 01 00:46:21
  TRACK 37 AUDIO
    TITLE "5:cjc030_01367"
    INDEX 01 00:46:35
  TRACK 38 AUDIO
    TITLE "0:"
    INDEX 01 00:47:40
  TRACK 39 AUDIO
    TITLE "3:cjc030_01368"
    INDEX 01 00:48:18
  TRACK 40 AUDIO
    TITLE "0:"
    INDEX 01 00:51:30
  TRACK 41 AUDIO
    TITLE "4:cjc030_01369"
    INDEX 01 00:51:38
  TRACK 42 AUDIO
    TITLE "0:"
    INDEX 01 00:52:65
  TRACK 43 AUDIO
    TITLE "5:cjc030_01370"
    INDEX 01 00:52:73
  TRACK 44 AUDIO
    TITLE "0:"
    INDEX 01 00:56:10
  TRACK 45 AUDIO
    TITLE "6:cjc030_01371"
    INDEX 01 00:56:24
  TRACK 46 AUDIO
    TITLE "0:"
    INDEX 01 01:01:36
  TRACK 47 AUDIO
    TITLE "3:cjc030_01372"
    INDEX 01 01:02:08
  TRACK 48 AUDIO
    TITLE "0:"
    INDEX 01 01:03:31
  TRACK 49 AUDIO
    TITLE "4:cjc030_01373"
    INDEX 01 01:03:41
  TRACK 50 AUDIO
    TITLE "0:"
    INDEX 01 01:05:07
  TRACK 51 AUDIO
    TITLE "5:cjc030_01374"
    INDEX 01 01:05:17
  TRACK 52 AUDIO
    TITLE "0:"
    INDEX 01 01:06:38
  TRACK 53 AUDIO
    TITLE "6:cjc030_01375"
    INDEX 01 01:06:51
  TRACK 54 AUDIO
    TITLE "0:"
    INDEX 01 01:10:73
  TRACK 55 AUDIO
    TITLE "3:cjc030_01376"
    INDEX 01 01:11:47
  TRACK 56 AUDIO
    TITLE "0:"
    INDEX 01 01:12:71
  TRACK 57 AUDIO
    TITLE "4:cjc030_01377"
    INDEX 01 01:13:06
  TRACK 58 AUDIO
    TITLE "0:"
    INDEX 01 01:13:55
  TRACK 59 AUDIO
    TITLE "5:cjc030_01378"
    INDEX 01 01:13:63
  TRACK 60 AUDIO
    TITLE "0:"
    INDEX 01 01:15:15
  TRACK 61 AUDIO
    TITLE "3:cjc030_01379"
    INDEX 01 01:15:66
  TRACK 62 AUDIO
    TITLE "0:"
    INDEX 01 01:17:06
  TRACK 63 AUDIO
    TITLE "4:cjc030_01380"
    INDEX 01 01:17:16
  TRACK 64 AUDIO
    TITLE "0:"
    INDEX 01 01:18:23
  TRACK 65 AUDIO
    TITLE "5:cjc030_01381"
    INDEX 01 01:18:31
  TRACK 66 AUDIO
    TITLE "0:"
    INDEX 01 01:19:48
  TRACK 67 AUDIO
    TITLE "3:cjc030_01382"
    INDEX 01 01:20:28
  TRACK 68 AUDIO
    TITLE "0:"
    INDEX 01 01:21:59
  TRACK 69 AUDIO
    TITLE "4:cjc030_01383"
    INDEX 01 01:21:69
  TRACK 70 AUDIO
    TITLE "0:"
    INDEX 01 01:23:48
  TRACK 71 AUDIO
    TITLE "5:cjc030_01384"
    INDEX 01 01:23:56
  TRACK 72 AUDIO
    TITLE "0:"
    INDEX 01 01:25:13
  TRACK 73 AUDIO
    TITLE "3:cjc030_01385"
    INDEX 01 01:25:66
  TRACK 74 AUDIO
    TITLE "0:"
    INDEX 01 01:27:24
  TRACK 75 AUDIO
    TITLE "4:cjc030_01386"
    INDEX 01 01:27:34
  TRACK 76 AUDIO
    TITLE "0:"
    INDEX 01 01:29:31
  TRACK 77 AUDIO
    TITLE "5:cjc030_01387"
    INDEX 01 01:29:39
  TRACK 78 AUDIO
    TITLE "0:"
    INDEX 01 01:30:73
  TRACK 79 AUDIO
    TITLE "6:cjc030_01388"
    INDEX 01 01:31:10
  TRACK 80 AUDIO
    TITLE "0:"
    INDEX 01 01:34:46
  TRACK 81 AUDIO
    TITLE "3:cjc030_01389"
    INDEX 01 01:35:18
  TRACK 82 AUDIO
    TITLE "0:"
    INDEX 01 01:36:29
  TRACK 83 AUDIO
    TITLE "4:cjc030_01390"
    INDEX 01 01:36:39
  TRACK 84 AUDIO
    TITLE "0:"
    INDEX 01 01:38:26
  TRACK 85 AUDIO
    TITLE "5:cjc030_01391"
    INDEX 01 01:38:34
  TRACK 86 AUDIO
    TITLE "0:"
    INDEX 01 01:39:47
  TRACK 87 AUDIO
    TITLE "6:cjc030_01392"
    INDEX 01 01:39:59
  TRACK 88 AUDIO
    TITLE "0:"
    INDEX 01 01:43:19
  TRACK 89 AUDIO
    TITLE "3:cjc030_01393"
    INDEX 01 01:43:66
  TRACK 90 AUDIO
    TITLE "0:"
    INDEX 01 01:45:61
  TRACK 91 AUDIO
    TITLE "4:cjc030_01394"
    INDEX 01 01:45:71
  TRACK 92 AUDIO
    TITLE "0:"
    INDEX 01 01:47:35
  TRACK 93 AUDIO
    TITLE "5:cjc030_01395"
    INDEX 01 01:47:44
  TRACK 94 AUDIO
    TITLE "0:"
    INDEX 01 01:49:39
  TRACK 95 AUDIO
    TITLE "6:cjc030_01396"
    INDEX 01 01:49:53
  TRACK 96 AUDIO
    TITLE "0:"
    INDEX 01 01:54:72
